<svg xmlns="http://www.w3.org/2000/svg" xmlns:xlink="http://www.w3.org/1999/xlink" width="1583.764" height="339.024" viewBox="0 0 1583.764 339.024">
  <defs>
    <clipPath id="clip-path">
      <rect id="Rectangle_17417" data-name="Rectangle 17417" width="217.767" height="337.375" transform="translate(0 0)" fill="#363636"/>
    </clipPath>
    <clipPath id="clip-path-2">
      <rect id="Rectangle_17395" data-name="Rectangle 17395" width="238.389" height="337.375" transform="translate(0 0)" fill="#fff" stroke="#707070" stroke-width="0.5"/>
    </clipPath>
  </defs>
  <g id="Group_51225" data-name="Group 51225" opacity="0.42">
    <g id="Group_51220" data-name="Group 51220" transform="translate(633.093)">
      <g id="Mask_Group_17" data-name="Mask Group 17" transform="translate(0 0)" opacity="0.175" clip-path="url(#clip-path)">
        <path id="Path_44097" data-name="Path 44097" d="M32.474,339.367V327.105l6.124-6.52V303.767l4.217-7.077v-13.87l4.425-14.462c.772-15.827,3.527-42.607,13.168-57.847h-.226a5.964,5.964,0,1,1,0-11.9h3.066l.271-.509-.271-.509h-1.18a4.136,4.136,0,1,1,0-8.255h1.61v-.272l-.142-.563h-.625a3.31,3.31,0,1,1-.124-6.611l2.24-7.445,2.239,7.445a3.31,3.31,0,1,1-.124,6.611h-.766v.272l.141.563h1.468a4.136,4.136,0,1,1,0,8.255H66.8l-.271.509.271.509h3.066a5.964,5.964,0,1,1,0,11.9h-.226c9.641,15.24,12.4,42.02,13.168,57.847l4.425,14.462v13.87l4.207,7.059.157,4.642h9.761v4.18h31.55V290.641h2.2V289.21h-1.248v-1.973a4.035,4.035,0,0,1,3.222-3.848l1.019-3.508,1.019,3.508a4.034,4.034,0,0,1,3.222,3.848v1.973H141.1v1.431h2.865v-2.7H146.2v2.7h2.715v-2.7h2.234v2.7h2.715v-2.7H156.1v2.7h2.715v-2.7h2.234v2.7h2.716v-2.7h2.234v2.7h2.714v-2.7h2.235v2.7h2.864V289.21h-1.248v-1.973a4.035,4.035,0,0,1,3.222-3.848l1.02-3.508,1.018,3.508a4.035,4.035,0,0,1,3.222,3.848v1.973h-1.248v1.431H182V312.57h31.549v-4.18H225.96v21.928l58.558-51.608,10.452,11.078h.07v.074l15.28,16.195h.02v.021l4.05,4.292,52.041-48.81L395.049,288.7h.01v.009l6.71,6.364c-.457-89.7-1.626-102.934-1.938-104.868l-.373-1.425H400.6a.827.827,0,0,1,.9.707V153.728h2.833V147.55h2.7v-8.439h2.3c.986-3.222,4.309-16.306,4.309-46.1h-2.866V90.215h3.11l1.1-6.308,1.1,6.308h3.111v2.794h-2.866c0,29.7,3.328,42.862,4.311,46.1h2.3v8.439h2.7v6.177h2.833V189.49a.826.826,0,0,1,.9-.707h1.146l-.372,1.425c-.358,2.216-1.843,19.272-2.088,149.367H440.47v51.159h-408V347.56H21.389Zm253.32-58.031h-.666l.138,1.481h1.925Zm2.193,2.324h-2.643l.138,1.48h3.9Zm2.192,2.324h-4.619l.138,1.481h5.877Zm2.192,2.324h-6.594l.139,1.481h7.853Zm2.193,2.324H286l.138,1.481h9.83Zm2.193,2.325H286.212l.138,1.48h11.8Zm2.192,2.324H286.429l.138,1.48h13.781Zm2.193,2.324h-14.5l.138,1.481h15.757Zm2.192,2.325H286.863L287,301.41h17.733Zm2.193,2.324H287.08l.138,1.48h19.708Zm2.192,2.324H287.3l.138,1.481h21.684Zm2.193,2.325h-22.4l.138,1.481h23.661Zm2.193,2.324H287.73l.138,1.481h25.636Zm-21.9,15.425,1.578-1.48h-2.756l.138,1.48Zm-.961.843,0,.053.058-.053Zm3.439-3.167.147-.137.147.137h8.662l1.578-1.481H288.815l.138,1.481Zm55.6,55.449-2.9-2.719H319.82l1.358,2.719Zm-26.687.843,1.358,2.72h29.127l-2.9-2.72Zm22.887-4.406-2.9-2.72H318.041l1.358,2.72Zm-3.8-3.564-2.9-2.72H316.263l1.357,2.72Zm-3.8-3.563-2.9-2.719h-19.5l1.358,2.719Zm-3.8-3.563-2.9-2.72H312.706l1.358,2.72Zm-3.8-3.564-2.9-2.72H310.927l1.358,2.72Zm-3.8-3.564-2.9-2.719H309.148l1.358,2.719Zm-3.8-3.563-2.9-2.72H307.37l1.358,2.72Zm-3.8-3.563-2.9-2.719h-9.4l1.357,2.719Zm-3.8-3.563-2.9-2.72h-7.382l1.357,2.72Zm-3.8-3.563-2.9-2.72h-5.362l1.357,2.72Zm-3.8-3.564-2.9-2.719h-3.342l1.357,2.719Zm-3.8-3.563-2.9-2.72h-1.321l1.357,2.72Zm-3.8-3.563-1.585-1.486.743,1.486Zm.267-6.8,1.578-1.48H293.88l1.578,1.48Zm-2.808.843.955.895.954-.895ZM304.121,320l1.579-1.481H288.6l.139,1.481Zm2.478-2.325,1.579-1.481h-19.8l.138,1.481Zm2.478-2.324,1.578-1.48H288.164l.139,1.48Zm2.477-2.324,1.579-1.48H287.948l.138,1.48Zm54.684-50.1L339.6,287.921l8.042,6.462,26.452-10.057Zm1.258.837,1.357,3.7h2.539Zm4.785,4.538h-3.118l1.341,3.652h5.629Zm4.741,4.5h-6.209l1.207,3.287h8.467Zm4.354,4.13h-9.047l1.207,3.285h11.305Zm4.354,4.129H373.846l1.127,3.07,13.964-.029Zm4.094,3.883H375.271l.518,1.41h15.523ZM392.2,287.2H376.1l.552,1.5h17.134Zm2.473,2.346H376.96l.551,1.5h18.746Zm2.156,2.044v.3H377.82l.551,1.5h20.358Zm2.67,2.534v.111H378.682l.551,1.5H401.2Zm2.277,2.457H379.542l.551,1.5h21.691C401.781,297.585,401.779,297.073,401.777,296.581Zm.011,2.345H380.4l.551,1.5h20.84C401.793,299.923,401.79,299.426,401.788,298.926Zm.011,2.345H381.264l.551,1.5h19.99C401.8,302.274,401.8,301.766,401.8,301.271Zm.011,2.345H382.126l.55,1.5h19.139C401.814,304.614,401.811,304.115,401.809,303.616Zm.01,2.346H382.986l.551,1.5h18.288Q401.821,306.708,401.819,305.961Zm.01,2.345H383.848l.551,1.5h17.436C401.833,309.305,401.831,308.8,401.829,308.306Zm.008,2.345H384.708l.551,1.5h16.584C401.842,311.647,401.84,311.152,401.837,310.651Zm.009,2.346H385.569l.551,1.5h15.731C401.85,314,401.848,313.492,401.846,313Zm.008,2.345H386.431l.551,1.5H401.86C401.858,316.335,401.856,315.844,401.854,315.341Zm.008,2.345H387.291l.551,1.5h14.025C401.866,318.689,401.864,318.18,401.862,317.686Zm.008,2.345H388.153l.551,1.5h13.17C401.873,321.028,401.871,320.531,401.87,320.03Zm.007,2.346H389.013l.551,1.5h12.317C401.88,323.376,401.878,322.872,401.878,322.376Zm.006,2.345H389.875l.551,1.5h11.463Q401.886,325.469,401.884,324.721Zm.006,2.345H390.735l.551,1.5h10.607C401.893,328.06,401.891,327.57,401.89,327.065Zm.006,2.345H391.6l.552,1.5H401.9C401.9,330.413,401.9,329.906,401.9,329.41Zm.005,2.346h-9.445l.551,1.5h8.9C401.9,332.752,401.9,332.256,401.9,331.756Zm.005,2.345h-8.589l.552,1.5h8.04C401.91,335.1,401.909,334.6,401.907,334.1Zm0,2.345h-7.732l.551,1.5h7.185C401.914,337.446,401.913,336.945,401.912,336.446Zm.005,2.345h-6.877l.288.784h6.59C401.918,339.312,401.917,339.054,401.917,338.791Zm.438-138.919h-.129c.077,1.979.153,4.21.226,6.675l.823-3.152Zm.268,13.108,0,.169c.063,2.6.127,5.568.19,8.94l1.385,5.3,2.671-10.226L404.2,206.939Zm23.16,21.5L423.111,244.7l2.672,10.225.969-3.71c.049-4.5.1-8.638.149-12.455ZM427,232.04q.019-1.206.037-2.358l-.326,1.25Zm-11.08,40.2,2.672,10.224,2.671-10.224-2.671-10.225Zm1.746-13.768-2.671-10.225-2.672,10.225,2.672,10.224Zm-2.671,17.312-2.672,10.225,2.672,10.224,2.671-10.224Zm-.926-3.545L411.4,262.012l-2.671,10.225,2.671,10.224Zm0-27.535L411.4,234.476,408.723,244.7l2.672,10.224Zm.926-3.544,2.671-10.225-2.671-10.225-2.671,10.225Zm.926,3.543,2.671,10.225L421.26,244.7l-2.671-10.224Zm3.6,13.768,2.672,10.225,2.671-10.224-2.671-10.225Zm2.672,17.313-2.672,10.225,2.672,10.224,2.671-10.224Zm-2.671,37.761,2.671,10.225,2.671-10.225-2.671-10.225Zm1.744-13.768-2.671-10.225-2.672,10.225L418.589,310Zm-6.268,3.543-2.672,10.225,2.672,10.225,2.671-10.225Zm-.926-3.543L411.4,289.549l-2.672,10.225L411.4,310Zm-6.268,3.543-2.672,10.225,2.672,10.225,2.672-10.225Zm2.672-17.311L407.8,275.781l-2.671,10.225L407.8,296.23Zm0-27.538L407.8,248.244l-2.672,10.225,2.672,10.224Zm0-27.536L407.8,220.707l-2.672,10.225,2.672,10.225ZM407.8,213.619l2.672-10.225L407.8,193.171l-2.671,10.224Zm.926,3.543,2.671,10.225,2.671-10.225L411.4,206.939Zm6.268-3.543,2.671-10.225-2.671-10.224-2.672,10.224Zm.925,3.543,2.672,10.226,2.671-10.226-2.671-10.224Zm6.269-3.543,2.671-10.225-2.671-10.224-2.672,10.224Zm-2.671,17.312,2.671,10.225,2.671-10.225-2.671-10.224Zm6.268,31.08-2.671,10.224,2.671,10.225.726-2.779q.051-7.684.11-14.472Zm0,27.537-2.672,10.225L425.783,310l.577-2.211q.034-8.264.074-15.743Zm0,27.536-2.671,10.225,3.156,12.081q.02-10.634.051-20.251Zm-3.6,13.768-2.279,8.722h4.556Zm-.926-3.543-2.671-10.225-2.671,10.225,2.671,10.225Zm-6.268,3.543-2.279,8.722h4.557Zm-.926-3.543L411.4,317.085l-2.671,10.225,2.671,10.225Zm-6.268,3.543-2.279,8.722h4.557Zm-.925-3.543L404.2,317.085l-.537,2.055q.031,9.625.051,20.252ZM404.2,310l2.672-10.224L404.2,289.549l-.652,2.495q.04,7.486.075,15.743Zm0-27.537,2.672-10.224L404.2,262.012l-.835,3.2q.058,6.8.109,14.472Zm0-27.536,2.672-10.225L404.2,234.476l-1.12,4.284c.051,3.817.1,7.957.15,12.455Zm-.925-23.993-.327-1.25q.019,1.154.037,2.358Zm.925-62.014v7.6h2.923v-7.6Zm2.923-2.817v-2.243H404.2V166.1ZM404.2,177.36v1.4h2.923v-1.4Zm0-21.1v6.756h2.923v-6.756Zm10.341-29.887a89.105,89.105,0,0,1-2.4,12.74h2.4Zm.9,0v12.74h2.4A89.176,89.176,0,0,1,415.442,126.371Zm4.809,15.27H409.733v.7h10.517Zm0,1.546H409.733v4.363h10.517Zm2.7,6.893H407.034v.7h15.916Zm0,1.547H407.034v2.1h15.916Zm-8.407,24.89v-7.6h-6.519v7.6Zm-6.519.843v1.4h6.519v-1.4Zm6.519-11.26v-2.243h-6.519V166.1Zm0-3.087v-6.756h-6.519v6.756Zm7.419,13.5v-7.6h-6.519v7.6Zm-6.519.843v1.4h6.519v-1.4Zm6.519-11.26v-2.243h-6.519V166.1Zm0-3.087v-6.756h-6.519v6.756Zm3.822-6.756H422.86v6.756h2.923Zm0,7.6H422.86V166.1h2.923Zm0,5.061H422.86v7.6h2.923Zm0,8.443H422.86v1.4h2.923Zm0,3.93H404.2v18.56h0l3.6-13.768,3.6,13.768,3.6-13.768,3.6,13.768,3.6-13.768,3.6,13.768Zm-2.671,35.873,2.671,10.225,1.384-5.3c.064-3.373.128-6.337.19-8.94l0-.169-1.578-6.041Zm4.517-17.292-.921,3.524.824,3.151c.073-2.465.148-4.7.226-6.675ZM427.92,388.2h1.955V351.634H427.92Zm-23.16,0h20.462V351.634H404.76Zm-4.652,0h1.954V351.634h-1.954Zm-7.9,0h5.2V349.1h35.162v39.1h5.2v-46.1H392.211Zm2.166-48.629-19.992-54.45-26.661,10.136-.254.1-8.51-6.839-41.012,38.467,57.5,53.936,13.5-12.66,20.564,19.288V339.575Zm-19.1,38.2-1.851-1.735.867,1.735Zm-.563.843.769,1.541h2.335l-1.642-1.541ZM379.5,388.2h6.9l-1.39-1.3h-6.157Zm-1.072-2.147h5.679l-2.287-2.145h-4.462Zm2.493-2.988-2.2-2.064h-2.814l1.031,2.064Zm-17.7,5.135h13.305l-7.978-15.983L357.36,382.711Zm-36.834,0H359.4l-2.619-2.457H325.156Zm29.5-3.3-2.9-2.719H323.377l1.358,2.719ZM323.4,388.2l-30.976-62.055L226.267,388.2Zm-97.444-3.289,62.464-58.589-4.3-46.109L225.96,331.477ZM132.913,315.1h-31.55v11.217h31.55ZM99.9,328.848a8.875,8.875,0,0,1-2.337,4.788h43.549a8.869,8.869,0,0,1-2.336-4.788Zm6.3,22.787a8.867,8.867,0,0,1-2.33,4.788H134.81a8.869,8.869,0,0,1-2.331-4.788Zm19.433-2.53V339.98H113.046V349.1Zm-12.589-9.967h12.589v-2.971H113.046Zm25.062-53.346a1.548,1.548,0,0,0-1.423.889h2.847A1.548,1.548,0,0,0,138.108,285.791Zm-.295,3.419v1.431h.59V289.21Zm38.987-3.419a1.548,1.548,0,0,0-1.424.889h2.848A1.549,1.549,0,0,0,176.8,285.791Zm-.3,3.419v1.431h.59V289.21Zm2.793,3.962H135.611v13.776h1.749V296.6h4.2v10.35h3.264V296.6h7.9v10.35h.781V296.6h7.9v10.35h.782V296.6h7.9v10.35h3.263V296.6h4.2v10.35H179.3Zm-41.039,4.269v9.506h2.4v-9.506Zm7.46,0v9.278h6.1v-9.278Zm8.683,0v9.278h6.1v-9.278Zm8.684,0v9.278h6.1v-9.278Zm11.165,0v9.506h2.4v-9.506Zm5.047,12.036H135.611v16.84h4.147V314.469H175.15v11.849H179.3Zm-24.966,22.275v-.846a3.129,3.129,0,0,1,6.244,0v.846h1.488v7.758c.267.094.531.191.789.3V317h-10.8V339.81c.258-.109.522-.207.788-.3v-7.758Zm1.209,2.53v4.577a12.761,12.761,0,0,1,3.826,0v-4.577Zm2.338-2.53v-.846a.425.425,0,0,0-.849,0v.846ZM213.544,315.1H182v11.217h31.549Zm-37.415,13.747a8.867,8.867,0,0,1-2.335,4.788h43.548a8.87,8.87,0,0,1-2.336-4.788Zm6.3,22.787a8.867,8.867,0,0,1-2.33,4.788h30.937a8.863,8.863,0,0,1-2.331-4.788Zm19.433-2.53V339.98H189.273V349.1Zm-12.589-9.967h12.589v-2.971H189.273Zm26.442,17.322,1.049.43-.46,2.064h-.961V388.2h7.11l.809-.758V310.921h-7.02v15.4h.017l1.395.008-.047,1.308a6.433,6.433,0,0,0,3.909,5.826,1.394,1.394,0,0,1,.808,1.6,1.5,1.5,0,0,1-1.484,1.1H204.56V349.1h6.812l-.064,1.322A6.5,6.5,0,0,0,215.715,356.459ZM209.572,388.2h3.073V358.953h-3.073Zm-5.912,0h3.214V374h-3.214Zm0-15.047h3.214v-14.2h-3.214ZM196.017,388.2h6.744V374h-6.744Zm0-15.047h6.744v-14.2h-6.744ZM188.374,388.2h6.744V374h-6.744Zm0-15.047h6.744v-14.2h-6.744ZM184.26,388.2h3.215V374H184.26Zm0-15.047h3.215v-14.2H184.26Zm-5.77,15.047h3.073V358.953h-3.073Zm-7.839,0h5.141V358.95l-.991-.019-.406-2.077,1.021-.393a6.484,6.484,0,0,0,4.413-6.035l-.065-1.322h6.813V336.166H170.293a1.5,1.5,0,0,1-1.483-1.107,1.392,1.392,0,0,1,.809-1.6,6.7,6.7,0,0,0,2.833-2.368V317h-8.7v23.22a12.3,12.3,0,0,1,6.9,10.874Zm-6.472,0h3.774V374h-3.774Zm0-15.047h3.774v-14.2h-3.774ZM157.9,388.2h5.376V374H157.9Zm0-15.047h5.376v-14.2H157.9ZM151.627,388.2H157V374h-5.377Zm0-15.047H157v-14.2h-5.377ZM146.956,388.2h3.772V374h-3.772Zm0-15.047h3.772v-14.2h-3.772Zm0-16.735h21v-5.33c0-5.429-4.71-9.846-10.5-9.846s-10.5,4.417-10.5,9.846Zm-7.46.039h0l1.041.427-.459,2.064h-.962V388.2h5.143V351.092a12.3,12.3,0,0,1,6.9-10.874V317h-8.7v14.09a6.7,6.7,0,0,0,2.834,2.371,1.392,1.392,0,0,1,.807,1.6,1.5,1.5,0,0,1-1.482,1.1H128.333V349.1h6.812l-.064,1.322A6.509,6.509,0,0,0,139.5,356.461Zm-6.15,31.742h3.072V358.953h-3.072Zm-5.912,0h3.214V374h-3.214Zm0-15.047h3.214v-14.2h-3.214ZM119.791,388.2h6.744V374h-6.744Zm0-15.047h6.744v-14.2h-6.744ZM112.147,388.2h6.744V374h-6.744Zm0-15.047h6.744v-14.2h-6.744ZM108.034,388.2h3.214V374h-3.214Zm0-15.047h3.214v-14.2h-3.214Zm-5.77,15.047h3.073V358.953h-3.073ZM91.645,345.477a1.336,1.336,0,0,1,.138.977,1.425,1.425,0,0,1-.138.31V388.2h7.92V358.95l-.986-.019-.416-2.07,1.022-.4a6.483,6.483,0,0,0,4.414-6.036l-.064-1.322h6.813V336.166H94.067a1.5,1.5,0,0,1-1.483-1.1,1.392,1.392,0,0,1,.807-1.6A6.433,6.433,0,0,0,97.3,327.64l-.064-1.322h1.428v-15.4h-7.02ZM50.025,267.52l.256.068-.314,1.028c-.263,5.212-.312,9.206-.317,11.121h3.63c.247-6.86,1.652-40.389,6.159-61.665C52.974,232.776,50.769,253.885,50.025,267.52Zm4.155,12.218h.974a19.37,19.37,0,0,0,1.683-2.41c.033-8.99.508-46.244,5.976-65.658q-.847,1.327-1.622,2.779C56.013,235.141,54.444,272.4,54.18,279.738ZM75.072,323.93H77.8a8.87,8.87,0,0,1-2.335-4.786H54.586a8.874,8.874,0,0,1-2.334,4.786H75.072Zm-17.393,2.53v11.251h1.8V326.46Zm2.7,0v11.251h9.294V326.46Zm10.194,0v11.251h1.8V326.46Zm1.351-9.847V305.362h-1.8v11.251Zm-2.7,0V305.362h-8.4v11.251Zm-11.095,0h1.8V305.362h-1.8Zm16.492-13.782h.931a8.877,8.877,0,0,1-2.335-4.788H56.836a8.88,8.88,0,0,1-2.334,4.788h20.12Zm-4.5-7.318v-11.25h-1.8v11.25Zm-2.7,0v-11.25H62.63v11.25Zm-7.5,0h1.8v-11.25h-1.8Zm12.893-13.781h.356c-3.39-3.743-5.992-10.63-6.894-13.227H63.768c-.9,2.6-3.5,9.484-6.894,13.227H72.822Zm-.516-6.009c-.086-11.438-.809-47.311-6.34-65.213H64.087c-5.53,17.9-6.253,53.775-6.341,65.213a60.7,60.7,0,0,0,3.743-8.851l.291-.9h6.492l.291.9A60.757,60.757,0,0,0,72.306,275.723Zm-5.164-89.756a.783.783,0,1,0,0-1.562H62.911a.783.783,0,1,0,0,1.562Zm.843,9.09a1.6,1.6,0,1,0,0-3.194H62.069a1.6,1.6,0,1,0,0,3.194Zm1.886,12.922a3.428,3.428,0,1,0,0-6.843H60.182a3.428,3.428,0,1,0,0,6.843h9.689Zm-1.01,6.469q-.776-1.451-1.621-2.779c5.468,19.414,5.942,56.67,5.975,65.658a19.665,19.665,0,0,0,1.684,2.41h.973C75.608,272.4,74.04,235.14,68.861,214.448Zm11.225,54.168-.315-1.028.256-.068c-.744-13.635-2.949-34.743-9.413-49.447,4.507,21.276,5.911,54.8,6.157,61.665H80.4C80.4,277.823,80.35,273.829,80.087,268.617Zm8.861,41.054-.178-5.226-4.229-7.1V283.175l-1.439-4.7c.009,1.409,0,2.3,0,2.545l-.018,1.248H77.745a1.331,1.331,0,0,1,.092.891,1.5,1.5,0,0,1-1.484,1.1h-3.53v11.25h3.06l-.064,1.322a6.452,6.452,0,0,0,3.91,5.821l0,0a1.393,1.393,0,0,1,.8,1.6,1.5,1.5,0,0,1-1.482,1.1H74.622v11.251h2.1l1.394.007-.046,1.308a6.43,6.43,0,0,0,3.91,5.827,1.393,1.393,0,0,1,.807,1.6,1.5,1.5,0,0,1-1.483,1.1h-6.23v11.251H85.718l1.395.008-.047,1.308a6.4,6.4,0,0,0,1.881,4.431ZM85.532,388.2h3.415V347.56H85.532Zm-5.921,0h3.224V347.56H79.611Zm-26.471,0H76.913V371.711L53.14,379.241Zm0-11.633,23.773-7.529v-5.77L53.14,370.8Zm0-8.438L76.913,360.6V347.56H53.14ZM47.219,388.2h3.224V347.56H47.219ZM53.14,345.03H86.8a8.873,8.873,0,0,1-2.336-4.788H45.588a8.875,8.875,0,0,1-2.336,4.788H53.14Zm-17.969,0V388.2h9.349V347.56H39.753a1.5,1.5,0,0,1-1.483-1.107,1.389,1.389,0,0,1,.807-1.6,6.434,6.434,0,0,0,3.911-5.82l-.064-1.322H54.982V326.46H48.751a1.5,1.5,0,0,1-1.482-1.1,1.391,1.391,0,0,1,.806-1.6,6.434,6.434,0,0,0,3.911-5.82l-.065-1.322h3.512V305.362H51a1.5,1.5,0,0,1-1.483-1.1,1.392,1.392,0,0,1,.807-1.6,6.435,6.435,0,0,0,3.911-5.821l-.065-1.322h3.061v-11.25H53.7a1.5,1.5,0,0,1-1.482-1.1,1.341,1.341,0,0,1,.09-.892H46.974l-.018-1.248c0-.244-.014-1.136,0-2.545l-1.439,4.7v14.174L41.3,304.425V321.54l-6.124,6.521v12.533l-6,4.436Z" transform="translate(-226.443 -74.306)" fill="#363636" stroke="#fdeeb9" stroke-width="1"/>
      </g>
      <g id="Group_51226" data-name="Group 51226" transform="translate(572.465 1.65)" opacity="0.148">
        <g id="Mask_Group_16" data-name="Mask Group 16" transform="translate(0 0)" clip-path="url(#clip-path-2)">
          <path id="Path_2" data-name="Path 2" d="M32.1,347.019V334.39l5.916-6.716V310.352l4.074-7.289V288.777l4.275-14.9c.746-16.3,3.407-43.884,12.72-59.58h-.218a6.13,6.13,0,0,1,0-12.26h2.962l.261-.525-.261-.525h-1.14a4.251,4.251,0,1,1,0-8.5h1.555v-.281l-.137-.58h-.6a3.405,3.405,0,0,1-.12-6.809l2.164-7.668,2.163,7.668a3.405,3.405,0,0,1-.12,6.809h-.74v.281l.136.58H66.4a4.251,4.251,0,0,1,0,8.5H65.262l-.262.525.262.525h2.962a6.13,6.13,0,0,1,0,12.26h-.218c9.313,15.7,11.975,43.279,12.72,59.58L85,288.777v14.286l4.064,7.27.152,4.781h9.43v4.305h30.478V296.834h2.127V295.36h-1.206v-2.032a4.094,4.094,0,0,1,3.113-3.963l.984-3.613.984,3.613a4.093,4.093,0,0,1,3.113,3.963v2.032h-1.206v1.474H139.8v-2.777h2.158v2.777h2.623v-2.777h2.158v2.777h2.623v-2.777h2.158v2.777h2.623v-2.777H156.3v2.777h2.623v-2.777h2.158v2.777H163.7v-2.777h2.159v2.777h2.767V295.36h-1.206v-2.032a4.094,4.094,0,0,1,3.113-3.963l.985-3.613.983,3.613a4.094,4.094,0,0,1,3.113,3.963v2.032h-1.206v1.474h2.128V319.42h30.477v-4.305h11.994V337.7l56.569-53.153,10.1,11.41h.068v.076l14.761,16.68h.019v.022l3.913,4.421,50.273-50.272,27.646,27.954h.01v.01l6.482,6.554c-.441-92.388-1.571-106.018-1.872-108.009l-.36-1.468h1.108c.464,0,.711.183.869.728V155.819h2.736v-6.362h2.608v-8.692h2.22c.952-3.318,4.163-16.794,4.163-47.483h-2.768V90.4h3l1.067-6.5,1.067,6.5h3v2.878h-2.768c0,30.585,3.215,44.146,4.164,47.483h2.219v8.692h2.607v6.362h2.737v36.833c.157-.545.4-.728.869-.728h1.107l-.36,1.468c-.346,2.282-1.78,19.85-2.017,153.841h11.984v52.691H32.1V355.457H21.389Zm244.716-59.769h-.644l.134,1.525h1.86Zm2.119,2.394h-2.553l.134,1.525h3.768Zm2.118,2.393h-4.462l.134,1.525H282.4Zm2.118,2.394H276.8l.134,1.525h7.586Zm2.119,2.394h-8.279l.133,1.525h9.5Zm2.119,2.394H277.217l.134,1.525h11.4Zm2.118,2.393h-12.1l.134,1.525h13.313Zm2.119,2.393H277.636l.134,1.525h15.222Zm2.118,2.394H277.846l.133,1.525h17.131Zm2.119,2.394H278.055l.134,1.525h19.038ZM298,311.187H278.264l.134,1.525h20.948Zm2.119,2.394H278.474l.134,1.525h22.857Zm2.119,2.394h-23.55l.134,1.525h24.766Zm-21.154,15.887,1.525-1.525h-2.663l.133,1.525Zm-.929.869,0,.055.056-.055Zm3.322-3.262.142-.142.142.142h8.368l1.525-1.525H279.731l.134,1.525Zm53.709,57.11-2.8-2.8h-24.7l1.312,2.8Zm-25.78.869,1.312,2.8H340.85l-2.8-2.8Zm22.11-4.538-2.8-2.8H307.964l1.312,2.8Zm-3.669-3.67-2.8-2.8H306.247l1.311,2.8Zm-3.67-3.67-2.8-2.8H304.529l1.312,2.8ZM322.5,371.9l-2.8-2.8H302.81l1.312,2.8Zm-3.669-3.67-2.8-2.8H301.092l1.312,2.8Zm-3.669-3.67-2.8-2.8H299.374l1.312,2.8Zm-3.67-3.669-2.8-2.8H297.655l1.312,2.8Zm-3.67-3.67-2.8-2.8h-9.083l1.311,2.8Zm-3.669-3.669-2.8-2.8H294.22l1.311,2.8Zm-3.67-3.67-2.8-2.8H292.5l1.311,2.8Zm-3.669-3.67-2.8-2.8h-3.228l1.311,2.8Zm-3.67-3.669-2.8-2.8h-1.276l1.311,2.8Zm-3.67-3.67-1.532-1.531.717,1.531Zm.258-7.009,1.525-1.525h-6.631l1.525,1.525Zm-2.713.869.923.922.922-.922Zm7.5-5.656,1.525-1.525H279.521l.134,1.525Zm2.394-2.394,1.525-1.525H279.312l.134,1.525Zm2.394-2.394,1.525-1.525H279.1l.134,1.525Zm2.393-2.393,1.525-1.525h-24.33l.133,1.525Zm52.826-51.6-25.735,25.735,7.769,6.656,25.553-10.358Zm1.215.862,1.311,3.806H359.5Zm4.622,4.674h-3.013l1.3,3.761h5.438Zm4.58,4.63h-6l1.166,3.385h8.18Zm4.206,4.254h-8.74l1.166,3.384H372.5Zm4.206,4.252H361.873l1.088,3.162,13.49-.03Zm3.955,4H363.25l.5,1.453h15Zm2.3,2.321H364.05l.533,1.547h16.552Zm2.389,2.416H364.882l.533,1.546h18.109Zm2.083,2.106v.309H365.713l.532,1.546h19.666Zm2.579,2.61v.115H366.545l.533,1.547H388.3Zm2.2,2.531H367.377l.533,1.546h20.954C388.86,303.986,388.858,303.458,388.856,302.952Zm.01,2.415H368.209l.533,1.546h20.132C388.872,306.394,388.869,305.882,388.866,305.367Zm.01,2.415H369.04l.533,1.546h19.311C388.881,308.815,388.879,308.292,388.877,307.782Zm.01,2.415H369.872l.532,1.547h18.489C388.892,311.225,388.889,310.711,388.887,310.2Zm.01,2.416H370.7l.533,1.546H388.9Q388.9,313.382,388.9,312.613Zm.01,2.415h-17.37l.532,1.546h16.844C388.91,316.057,388.908,315.54,388.906,315.028Zm.008,2.415H372.367l.533,1.547h16.02C388.918,318.469,388.917,317.959,388.914,317.443Zm.009,2.416H373.2l.532,1.546h15.2C388.926,320.89,388.925,320.369,388.923,319.858Zm.008,2.415h-14.9l.533,1.546h14.373C388.934,323.3,388.932,322.791,388.931,322.273Zm.008,2.415H374.862l.533,1.546h13.549C388.942,325.722,388.94,325.2,388.938,324.688Zm.008,2.415H375.694l.532,1.547H388.95C388.949,328.131,388.947,327.619,388.946,327.1Zm.007,2.416H376.526l.532,1.546h11.9C388.956,330.549,388.954,330.03,388.953,329.519Zm.006,2.415h-11.6l.532,1.546h11.073Q388.961,332.705,388.959,331.934Zm.006,2.415H378.189l.533,1.546h10.247C388.968,335.373,388.966,334.869,388.965,334.349Zm.006,2.415h-9.951l.533,1.547h9.421C388.973,337.8,388.972,337.275,388.971,336.764Zm.005,2.416h-9.124l.533,1.546h8.595C388.979,340.206,388.978,339.695,388.977,339.18Zm.005,2.415h-8.3l.533,1.547h7.767C388.984,342.627,388.984,342.106,388.982,341.595Zm0,2.416h-7.47l.533,1.546h6.941C388.989,345.041,388.987,344.524,388.986,344.011Zm.005,2.415h-6.643l.278.808h6.366C388.992,346.962,388.991,346.7,388.991,346.426Zm.423-143.08h-.124c.075,2.038.148,4.336.218,6.875l.795-3.246Zm.259,13.5,0,.174c.061,2.682.123,5.735.183,9.208l1.338,5.459,2.58-10.532-2.58-10.53Zm22.373,22.14-2.581,10.53,2.581,10.531.936-3.821c.047-4.633.095-8.9.144-12.828Zm1.174-2.509q.018-1.242.036-2.429l-.315,1.287Zm-10.7,41.4,2.581,10.53,2.58-10.53-2.58-10.531ZM404.2,263.7l-2.58-10.531L399.041,263.7l2.581,10.53Zm-2.58,17.831-2.581,10.531,2.581,10.53,2.58-10.53Zm-.895-3.651-2.58-10.53-2.58,10.531,2.58,10.53Zm0-28.36-2.58-10.531-2.581,10.531,2.581,10.53Zm.895-3.65,2.58-10.531-2.58-10.531-2.58,10.531Zm.895,3.649,2.58,10.531,2.58-10.531-2.58-10.53Zm3.474,14.18,2.581,10.531,2.58-10.53-2.58-10.531Zm2.581,17.832-2.581,10.531,2.581,10.53,2.58-10.53Zm-2.58,38.892,2.58,10.531,2.58-10.531-2.58-10.531Zm1.685-14.181-2.58-10.531-2.581,10.531,2.581,10.53Zm-6.055,3.649-2.581,10.531,2.581,10.531,2.58-10.531Zm-.895-3.649-2.58-10.531-2.581,10.531,2.581,10.531Zm-6.055,3.649-2.581,10.531,2.581,10.531,2.581-10.531Zm2.581-17.83-2.581-10.531-2.58,10.531,2.58,10.53Zm0-28.363-2.581-10.53L392.092,263.7l2.581,10.53Zm0-28.361-2.58-10.531-2.581,10.531,2.581,10.531Zm-2.58-17.831,2.581-10.531-2.581-10.53-2.58,10.53Zm.895,3.649,2.58,10.531,2.58-10.531-2.58-10.53Zm6.055-3.649,2.58-10.531-2.58-10.53-2.581,10.53Zm.894,3.649,2.581,10.532,2.58-10.532-2.58-10.53Zm6.056-3.649,2.58-10.531-2.58-10.53-2.581,10.53Zm-2.58,17.831,2.58,10.531,2.58-10.531-2.58-10.53Zm6.055,32.011-2.58,10.53,2.58,10.531.7-2.862q.05-7.915.106-14.9Zm0,28.362-2.581,10.531,2.581,10.53.558-2.277q.033-8.511.071-16.215Zm0,28.361-2.58,10.531,3.048,12.442q.02-10.952.05-20.857Zm-3.475,14.181-2.2,8.983h4.4Zm-.895-3.649L405.1,324.07l-2.58,10.531,2.58,10.531Zm-6.055,3.649-2.2,8.983h4.4Zm-.895-3.649-2.58-10.531-2.58,10.531,2.58,10.531Zm-6.055,3.649-2.2,8.983h4.4Zm-.894-3.649L391.2,324.07l-.519,2.116q.03,9.913.05,20.858ZM391.2,316.77l2.581-10.53L391.2,295.709l-.63,2.57q.039,7.71.072,16.215Zm0-28.362,2.581-10.53L391.2,267.347l-.807,3.294q.056,7,.105,14.9Zm0-28.361,2.581-10.531-2.581-10.53-1.082,4.412c.05,3.932.1,8.2.145,12.828Zm-.894-24.712-.316-1.287q.018,1.188.036,2.429Zm.894-63.871v7.827h2.823v-7.827Zm2.823-2.9v-2.311H391.2v2.311Zm-2.823,11.6V181.6h2.823V180.16Zm0-21.735v6.958h2.823v-6.958Zm9.99-30.782a97.2,97.2,0,0,1-2.322,13.122h2.322Zm.869,0v13.122h2.321A97.249,97.249,0,0,1,402.057,127.643Zm4.646,15.728h-10.16v.724H406.7Zm0,1.592h-10.16v4.494H406.7Zm2.607,7.1H393.934v.724h15.375Zm0,1.593H393.934v2.163h15.375Zm-8.121,25.635v-7.827h-6.3v7.827Zm-6.3.869V181.6h6.3V180.16Zm6.3-11.6v-2.311h-6.3v2.311Zm0-3.179v-6.958h-6.3v6.958Zm7.167,13.908v-7.827h-6.3v7.827Zm-6.3.869V181.6h6.3V180.16Zm6.3-11.6v-2.311h-6.3v2.311Zm0-3.179v-6.958h-6.3v6.958Zm3.692-6.958h-2.823v6.958h2.823Zm0,7.827h-2.823v2.311h2.823Zm0,5.212h-2.823v7.827h2.823Zm0,8.7h-2.823V181.6h2.823Zm0,4.047H391.2v19.116h0l3.475-14.181,3.475,14.181,3.475-14.181,3.475,14.181,3.475-14.181,3.475,14.181Zm-2.58,36.948,2.58,10.531,1.337-5.459c.062-3.474.123-6.526.183-9.208l0-.174-1.525-6.222Zm4.363-17.81-.89,3.629.8,3.245c.07-2.539.143-4.837.218-6.875Zm.281,193.974H416V359.654h-1.888Zm-22.373,0h19.767V359.654H391.738Zm-4.494,0h1.888V359.654h-1.888Zm-7.63,0h5.024V357.048h33.968v40.271h5.023V349.84H379.615Zm2.093-50.085-19.313-56.081-25.755,10.44-.245.1-8.221-7.044-39.619,39.619,55.55,55.552,13.039-13.039,19.865,19.866V347.233ZM363.258,386.58l-1.788-1.787.837,1.787Zm-.544.869.743,1.587h2.256l-1.586-1.587Zm4.621,9.87H374l-1.343-1.342h-5.948Zm-1.035-2.211h5.486l-2.209-2.209h-4.31Zm2.408-3.078-2.126-2.126h-2.718l1,2.126Zm-17.1,5.289h12.853l-7.707-16.462-10.8,10.8Zm-35.582,0h31.9l-2.53-2.53H314.837Zm28.5-3.4-2.8-2.8h-28.6l1.312,2.8Zm-31.375,3.4L283.221,333.4l-63.913,63.914Zm-94.134-3.387,60.342-60.344L275.2,286.1l-56.185,52.795Zm-89.886-71.906H98.647v11.553h30.478ZM97.236,336.185a9.41,9.41,0,0,1-2.258,4.932h42.07a9.4,9.4,0,0,1-2.257-4.932Zm6.085,23.469a9.4,9.4,0,0,1-2.251,4.932h29.886a9.4,9.4,0,0,1-2.252-4.932Zm18.773-2.606v-9.4H109.933v9.4Zm-12.162-10.266h12.162v-3.06H109.933Zm24.21-54.944a1.491,1.491,0,0,0-1.375.916h2.75A1.491,1.491,0,0,0,134.143,291.838Zm-.285,3.522v1.474h.57V295.36Zm37.663-3.522a1.492,1.492,0,0,0-1.376.916H172.9A1.492,1.492,0,0,0,171.521,291.838Zm-.286,3.522v1.474h.57V295.36Zm2.7,4.08h-42.2v14.188h1.69v-10.66h4.053v10.66h3.153v-10.66h7.633v10.66h.755v-10.66h7.633v10.66h.756v-10.66h7.633v10.66h3.152v-10.66h4.054v10.66h1.69Zm-39.644,4.4v9.791h2.316v-9.791Zm7.207,0v9.556h5.9v-9.556Zm8.388,0v9.556h5.9v-9.556Zm8.389,0v9.556h5.9v-9.556Zm10.786,0v9.791h2.317v-9.791Zm4.875,12.4h-42.2v17.344h4.006v-12.2h34.19v12.2h4.006Zm-24.117,22.942v-.871a3.016,3.016,0,1,1,6.032,0v.871h1.438v7.99c.258.1.513.2.762.309V323.981H147.617v23.495c.249-.112.5-.213.761-.309v-7.99Zm1.167,2.606V346.5a11.57,11.57,0,0,1,3.7,0v-4.714Zm2.259-2.606v-.871a.41.41,0,1,0-.82,0v.871Zm53.775-17.151H176.54v11.553h30.477Zm-36.145,14.159a9.4,9.4,0,0,1-2.256,4.932h42.069a9.4,9.4,0,0,1-2.257-4.932Zm6.086,23.469a9.4,9.4,0,0,1-2.251,4.932h29.886a9.4,9.4,0,0,1-2.252-4.932Zm18.773-2.606v-9.4H183.57v9.4ZM183.57,346.782h12.162v-3.06H183.57Zm25.544,17.841,1.013.443-.444,2.126h-.929v30.127h6.869l.782-.781V317.721h-6.782v15.858h.017l1.347.008-.045,1.347a6.709,6.709,0,0,0,3.776,6,1.47,1.47,0,0,1-.652,2.788H198.338v13.326h6.58l-.062,1.361A6.747,6.747,0,0,0,209.114,364.623Zm-5.934,32.7h2.968V367.192H203.18Zm-5.711,0h3.1V382.69h-3.1Zm0-15.5h3.1v-14.63h-3.1Zm-7.384,15.5H196.6V382.69h-6.515Zm0-15.5H196.6v-14.63h-6.515Zm-7.384,15.5h6.515V382.69H182.7Zm0-15.5h6.515v-14.63H182.7Zm-3.974,15.5h3.106V382.69h-3.106Zm0-15.5h3.106v-14.63h-3.106Zm-5.574,15.5h2.968V367.192h-2.968Zm-7.572,0h4.966v-30.13l-.957-.02-.393-2.139.986-.4a6.722,6.722,0,0,0,4.263-6.215l-.063-1.361h6.581V343.722H165.236a1.47,1.47,0,0,1-.651-2.788,6.6,6.6,0,0,0,2.736-2.439V323.981h-8.4V347.9a12.761,12.761,0,0,1,6.664,11.2Zm-6.252,0h3.646V382.69h-3.646Zm0-15.5h3.646v-14.63h-3.646Zm-6.062,15.5h5.193V382.69h-5.193Zm0-15.5h5.193v-14.63h-5.193Zm-6.063,15.5H152.4V382.69H147.2Zm0-15.5H152.4v-14.63H147.2Zm-4.513,15.5h3.644V382.69H142.69Zm0-15.5h3.644v-14.63H142.69Zm0-17.236h20.284V359.1a10.142,10.142,0,0,0-20.284,0Zm-7.207.04h0l1.006.44-.443,2.126h-.93v30.127h4.968V359.1a12.761,12.761,0,0,1,6.664-11.2V323.981h-8.4v14.512a6.6,6.6,0,0,0,2.738,2.442,1.47,1.47,0,0,1-.652,2.787H124.7v13.326h6.58l-.062,1.361A6.751,6.751,0,0,0,135.484,364.626Zm-5.941,32.693h2.967V367.192h-2.967Zm-5.711,0h3.1V382.69h-3.1Zm0-15.5h3.1v-14.63h-3.1Zm-7.384,15.5h6.515V382.69h-6.515Zm0-15.5h6.515v-14.63h-6.515Zm-7.384,15.5h6.515V382.69h-6.515Zm0-15.5h6.515v-14.63h-6.515Zm-3.973,15.5h3.1V382.69h-3.1Zm0-15.5h3.1v-14.63h-3.1Zm-5.574,15.5h2.968V367.192H99.516ZM89.259,353.312a1.456,1.456,0,0,1,.134,1.007,1.518,1.518,0,0,1-.134.319v42.681H96.91v-30.13l-.953-.02-.4-2.132.988-.411a6.721,6.721,0,0,0,4.264-6.216l-.062-1.361h6.581V343.722H91.6a1.47,1.47,0,0,1-.653-2.787,6.709,6.709,0,0,0,3.778-5.995l-.062-1.362h1.379V317.721H89.259ZM49.052,273.02l.248.07L49,274.15c-.255,5.369-.3,9.482-.307,11.455H52.2c.239-7.066,1.6-41.6,5.95-63.512C51.9,237.235,49.771,258.977,49.052,273.02ZM53.067,285.6h.941a20.025,20.025,0,0,0,1.626-2.483c.032-9.259.491-47.63,5.773-67.625q-.818,1.367-1.567,2.862C54.837,239.671,53.321,278.045,53.067,285.6Zm20.182,45.515h2.636a9.4,9.4,0,0,1-2.256-4.93H53.458a9.409,9.409,0,0,1-2.255,4.93H73.249Zm-16.8,2.606v11.588h1.74V333.725Zm2.609,0v11.588h8.979V333.725Zm9.847,0v11.588h1.74V333.725Zm1.3-10.142V311.995H68.468v11.588Zm-2.608,0V311.995H59.49v11.588Zm-10.718,0h1.739V311.995H56.882Zm15.932-14.194h.9a9.412,9.412,0,0,1-2.256-4.932H55.632a9.417,9.417,0,0,1-2.255,4.932H72.814Zm-4.344-7.538V290.264h-1.74v11.588Zm-2.609,0V290.264H61.229v11.588Zm-7.241,0h1.74V290.264H58.62Zm12.455-14.194h.344c-3.275-3.855-5.788-10.948-6.659-13.623H62.329c-.871,2.675-3.384,9.768-6.659,13.623H71.075Zm-.5-6.189c-.083-11.78-.782-48.728-6.124-67.166H62.637c-5.342,18.438-6.041,55.386-6.125,67.166a64.86,64.86,0,0,0,3.615-9.116l.281-.923H66.68l.281.923A64.921,64.921,0,0,0,70.577,281.468Zm-4.989-92.444a.8.8,0,0,0,0-1.609H61.5a.8.8,0,0,0,0,1.609Zm.815,9.363a1.645,1.645,0,0,0,0-3.29H60.687a1.645,1.645,0,1,0,0,3.29ZM68.224,211.7a3.524,3.524,0,0,0,0-7.048h-9.36a3.524,3.524,0,0,0,0,7.048h9.36Zm-.975,6.663q-.749-1.495-1.566-2.862c5.283,20,5.74,58.367,5.772,67.625a20.329,20.329,0,0,0,1.627,2.483h.94C73.767,278.045,72.252,239.67,67.249,218.359ZM78.093,274.15l-.3-1.059.248-.07c-.718-14.043-2.848-35.784-9.093-50.928,4.354,21.914,5.71,56.446,5.948,63.512H78.4C78.393,283.631,78.347,279.518,78.093,274.15Zm8.56,42.284-.172-5.382L82.4,303.742v-14.6l-1.39-4.841c.009,1.452,0,2.371,0,2.622l-.017,1.286H75.831a1.462,1.462,0,0,1-1.345,2.054h-3.41v11.588h2.956l-.062,1.361a6.732,6.732,0,0,0,3.777,6l0,0a1.47,1.47,0,0,1-.657,2.785h-4.28v11.588h2.028l1.346.007-.044,1.347a6.706,6.706,0,0,0,3.777,6,1.469,1.469,0,0,1-.653,2.786H73.249v11.588H83.533l1.347.008-.045,1.347a6.847,6.847,0,0,0,1.817,4.564Zm-3.3,80.886h3.3V355.457h-3.3Zm-5.72,0h3.114V355.457H77.633Zm-25.572,0H75.027V380.332l-22.966,7.755Zm0-11.982,22.966-7.755v-5.943L52.061,379.4Zm0-8.691,22.966-7.757V355.457H52.061Zm-5.72,20.673h3.114V355.457H46.341Zm5.72-44.467H84.579a9.408,9.408,0,0,1-2.257-4.932H44.766a9.411,9.411,0,0,1-2.257,4.932h9.552Zm-17.358,0v44.467h9.032V355.457H39.129a1.47,1.47,0,0,1-.653-2.787,6.711,6.711,0,0,0,3.778-5.995l-.062-1.362H53.841V333.725H47.821a1.47,1.47,0,0,1-.653-2.786,6.71,6.71,0,0,0,3.778-5.995l-.063-1.361h3.392V311.995H49.995a1.47,1.47,0,0,1-.653-2.787,6.711,6.711,0,0,0,3.778-6l-.063-1.361h2.957V290.264H52.6a1.463,1.463,0,0,1-1.345-2.054H46.1l-.017-1.286c0-.251-.013-1.17,0-2.622l-1.39,4.841v14.6l-4.074,7.288v17.628L34.7,335.374v12.909l-5.8,4.568Z" transform="translate(14.739 -84.277)" fill="#242424" stroke="#fdeeb9" stroke-width="0.5"/>
        </g>
      </g>
    </g>
    <line id="Line_164" data-name="Line 164" y1="61.945" transform="translate(463.756 252.925)" fill="none" stroke="#dbcfa2" stroke-linecap="round" stroke-linejoin="round" stroke-width="4.5" opacity="0.49"/>
    <line id="Line_175" data-name="Line 175" y1="45.12" transform="translate(534.018 269.75)" fill="none" stroke="#dbcfa2" stroke-linecap="round" stroke-linejoin="round" stroke-width="4.5" opacity="0.49"/>
    <path id="Path_44069" data-name="Path 44069" d="M463.973,297.727h25.29a14.8,14.8,0,0,0-12.646-7.037A15.045,15.045,0,0,0,463.973,297.727Z" transform="translate(3.701 -44.801)" fill="none" stroke="#dbcfa2" stroke-linecap="round" stroke-linejoin="round" stroke-width="4.5" opacity="0.49"/>
    <path id="Path_44098" data-name="Path 44098" d="M463.973,295.816h18.421a10.779,10.779,0,0,0-9.212-5.126A10.959,10.959,0,0,0,463.973,295.816Z" transform="translate(72.898 -26.065)" fill="none" stroke="#dbcfa2" stroke-linecap="round" stroke-linejoin="round" stroke-width="4.5" opacity="0.49"/>
    <path id="Path_44070" data-name="Path 44070" d="M452.677,298.028h25.29a14.8,14.8,0,0,0-12.646-7.037A15.045,15.045,0,0,0,452.677,298.028Z" transform="translate(-18.125 -44.221)" fill="none" stroke="#dbcfa2" stroke-linecap="round" stroke-linejoin="round" stroke-width="4.5" opacity="0.49"/>
    <path id="Path_44099" data-name="Path 44099" d="M452.677,296.116H471.1a10.779,10.779,0,0,0-9.212-5.126A10.959,10.959,0,0,0,452.677,296.116Z" transform="translate(60.068 -25.725)" fill="none" stroke="#dbcfa2" stroke-linecap="round" stroke-linejoin="round" stroke-width="4.5" opacity="0.49"/>
    <path id="Path_44071" data-name="Path 44071" d="M462.351,283.565l.223,25.29a14.8,14.8,0,0,0,6.926-12.708A15.051,15.051,0,0,0,462.351,283.565Z" transform="translate(0.566 -58.567)" fill="none" stroke="#dbcfa2" stroke-linecap="round" stroke-linejoin="round" stroke-width="4.5" opacity="0.49"/>
    <path id="Path_44100" data-name="Path 44100" d="M462.351,283.565l.162,18.421a10.779,10.779,0,0,0,5.045-9.256A10.963,10.963,0,0,0,462.351,283.565Z" transform="translate(71.055 -34.158)" fill="none" stroke="#dbcfa2" stroke-linecap="round" stroke-linejoin="round" stroke-width="4.5" opacity="0.49"/>
    <line id="Line_176" data-name="Line 176" y1="61.945" transform="translate(946.309 252.01)" fill="none" stroke="#dbcfa2" stroke-linecap="round" stroke-linejoin="round" stroke-width="4.5" opacity="0.49"/>
    <line id="Line_177" data-name="Line 177" y1="61.945" transform="translate(995.296 252.468)" fill="none" stroke="#dbcfa2" stroke-linecap="round" stroke-linejoin="round" stroke-width="4.5" opacity="0.162"/>
    <line id="Line_178" data-name="Line 178" y1="61.945" transform="translate(1118.276 252.925)" fill="none" stroke="#dbcfa2" stroke-linecap="round" stroke-linejoin="round" stroke-width="4.5" opacity="0.366"/>
    <line id="Line_179" data-name="Line 179" y1="45.12" transform="translate(1016.57 268.835)" fill="none" stroke="#dbcfa2" stroke-linecap="round" stroke-linejoin="round" stroke-width="4.5" opacity="0.49"/>
    <line id="Line_180" data-name="Line 180" y1="45.12" transform="translate(1065.557 269.292)" fill="none" stroke="#dbcfa2" stroke-linecap="round" stroke-linejoin="round" stroke-width="4.5" opacity="0.162"/>
    <line id="Line_181" data-name="Line 181" y1="45.12" transform="translate(1188.537 269.75)" fill="none" stroke="#dbcfa2" stroke-linecap="round" stroke-linejoin="round" stroke-width="4.5" opacity="0.366"/>
    <path id="Path_44101" data-name="Path 44101" d="M463.973,297.727h25.29a14.8,14.8,0,0,0-12.646-7.037A15.045,15.045,0,0,0,463.973,297.727Z" transform="translate(486.254 -45.716)" fill="none" stroke="#dbcfa2" stroke-linecap="round" stroke-linejoin="round" stroke-width="4.5" opacity="0.49"/>
    <path id="Path_44102" data-name="Path 44102" d="M463.973,297.727h25.29a14.8,14.8,0,0,0-12.646-7.037A15.045,15.045,0,0,0,463.973,297.727Z" transform="translate(535.24 -45.259)" fill="none" stroke="#dbcfa2" stroke-linecap="round" stroke-linejoin="round" stroke-width="4.5" opacity="0.162"/>
    <path id="Path_44103" data-name="Path 44103" d="M463.973,297.727h25.29a14.8,14.8,0,0,0-12.646-7.037A15.045,15.045,0,0,0,463.973,297.727Z" transform="translate(658.22 -44.801)" fill="none" stroke="#dbcfa2" stroke-linecap="round" stroke-linejoin="round" stroke-width="4.5" opacity="0.366"/>
    <path id="Path_44104" data-name="Path 44104" d="M463.973,295.816h18.421a10.779,10.779,0,0,0-9.212-5.126A10.959,10.959,0,0,0,463.973,295.816Z" transform="translate(555.451 -26.98)" fill="none" stroke="#dbcfa2" stroke-linecap="round" stroke-linejoin="round" stroke-width="4.5" opacity="0.49"/>
    <path id="Path_44105" data-name="Path 44105" d="M463.973,295.816h18.421a10.779,10.779,0,0,0-9.212-5.126A10.959,10.959,0,0,0,463.973,295.816Z" transform="translate(604.437 -26.523)" fill="none" stroke="#dbcfa2" stroke-linecap="round" stroke-linejoin="round" stroke-width="4.5" opacity="0.162"/>
    <path id="Path_44106" data-name="Path 44106" d="M463.973,295.816h18.421a10.779,10.779,0,0,0-9.212-5.126A10.959,10.959,0,0,0,463.973,295.816Z" transform="translate(727.417 -26.065)" fill="none" stroke="#dbcfa2" stroke-linecap="round" stroke-linejoin="round" stroke-width="4.5" opacity="0.366"/>
    <path id="Path_44107" data-name="Path 44107" d="M452.677,298.028h25.29a14.8,14.8,0,0,0-12.646-7.037A15.045,15.045,0,0,0,452.677,298.028Z" transform="translate(464.428 -45.136)" fill="none" stroke="#dbcfa2" stroke-linecap="round" stroke-linejoin="round" stroke-width="4.5" opacity="0.49"/>
    <path id="Path_44108" data-name="Path 44108" d="M452.677,298.028h25.29a14.8,14.8,0,0,0-12.646-7.037A15.045,15.045,0,0,0,452.677,298.028Z" transform="translate(513.414 -44.678)" fill="none" stroke="#dbcfa2" stroke-linecap="round" stroke-linejoin="round" stroke-width="4.5" opacity="0.162"/>
    <path id="Path_44109" data-name="Path 44109" d="M452.677,298.028h25.29a14.8,14.8,0,0,0-12.646-7.037A15.045,15.045,0,0,0,452.677,298.028Z" transform="translate(636.394 -44.221)" fill="none" stroke="#dbcfa2" stroke-linecap="round" stroke-linejoin="round" stroke-width="4.5" opacity="0.366"/>
    <path id="Path_44110" data-name="Path 44110" d="M452.677,296.116H471.1a10.779,10.779,0,0,0-9.212-5.126A10.959,10.959,0,0,0,452.677,296.116Z" transform="translate(542.621 -26.64)" fill="none" stroke="#dbcfa2" stroke-linecap="round" stroke-linejoin="round" stroke-width="4.5" opacity="0.49"/>
    <path id="Path_44111" data-name="Path 44111" d="M452.677,296.116H471.1a10.779,10.779,0,0,0-9.212-5.126A10.959,10.959,0,0,0,452.677,296.116Z" transform="translate(591.607 -26.182)" fill="none" stroke="#dbcfa2" stroke-linecap="round" stroke-linejoin="round" stroke-width="4.5" opacity="0.162"/>
    <path id="Path_44112" data-name="Path 44112" d="M452.677,296.116H471.1a10.779,10.779,0,0,0-9.212-5.126A10.959,10.959,0,0,0,452.677,296.116Z" transform="translate(714.588 -25.725)" fill="none" stroke="#dbcfa2" stroke-linecap="round" stroke-linejoin="round" stroke-width="4.5" opacity="0.366"/>
    <path id="Path_44113" data-name="Path 44113" d="M462.351,283.565l.223,25.29a14.8,14.8,0,0,0,6.926-12.708A15.051,15.051,0,0,0,462.351,283.565Z" transform="translate(483.119 -59.482)" fill="none" stroke="#dbcfa2" stroke-linecap="round" stroke-linejoin="round" stroke-width="4.5" opacity="0.49"/>
    <path id="Path_44114" data-name="Path 44114" d="M462.351,283.565l.223,25.29a14.8,14.8,0,0,0,6.926-12.708A15.051,15.051,0,0,0,462.351,283.565Z" transform="translate(532.106 -59.025)" fill="none" stroke="#dbcfa2" stroke-linecap="round" stroke-linejoin="round" stroke-width="4.5" opacity="0.162"/>
    <path id="Path_44115" data-name="Path 44115" d="M462.351,283.565l.223,25.29a14.8,14.8,0,0,0,6.926-12.708A15.051,15.051,0,0,0,462.351,283.565Z" transform="translate(655.086 -58.567)" fill="none" stroke="#dbcfa2" stroke-linecap="round" stroke-linejoin="round" stroke-width="4.5" opacity="0.366"/>
    <path id="Path_44116" data-name="Path 44116" d="M462.351,283.565l.162,18.421a10.779,10.779,0,0,0,5.045-9.256A10.963,10.963,0,0,0,462.351,283.565Z" transform="translate(553.608 -35.073)" fill="none" stroke="#dbcfa2" stroke-linecap="round" stroke-linejoin="round" stroke-width="4.5" opacity="0.49"/>
    <path id="Path_44117" data-name="Path 44117" d="M462.351,283.565l.162,18.421a10.779,10.779,0,0,0,5.045-9.256A10.963,10.963,0,0,0,462.351,283.565Z" transform="translate(602.595 -34.615)" fill="none" stroke="#dbcfa2" stroke-linecap="round" stroke-linejoin="round" stroke-width="4.5" opacity="0.162"/>
    <path id="Path_44118" data-name="Path 44118" d="M462.351,283.565l.162,18.421a10.779,10.779,0,0,0,5.045-9.256A10.963,10.963,0,0,0,462.351,283.565Z" transform="translate(725.575 -34.158)" fill="none" stroke="#dbcfa2" stroke-linecap="round" stroke-linejoin="round" stroke-width="4.5" opacity="0.366"/>
    <g id="Group_51227" data-name="Group 51227" transform="translate(153.663 131.853)" opacity="0.148">
      <path id="Path_44043" data-name="Path 44043" d="M339.861,321.155H274.687V264.266" transform="translate(-264.266 -139.554)" fill="none" stroke="#555" stroke-linecap="round" stroke-linejoin="round" stroke-width="2.5"/>
      <line id="Line_146" data-name="Line 146" y2="24.171" transform="translate(64.576 73.802)" fill="none" stroke="#555" stroke-linecap="round" stroke-linejoin="round" stroke-width="2.5"/>
      <path id="Path_44045" data-name="Path 44045" d="M293.418,254.857V220.391h15.76v46.63" transform="translate(-261.664 -145.649)" fill="none" stroke="#555" stroke-linecap="round" stroke-linejoin="round" stroke-width="2.5"/>
      <rect id="Rectangle_1752" data-name="Rectangle 1752" width="9.604" height="26.651" transform="translate(34.832 48.091)" fill="none" stroke="#555" stroke-linecap="round" stroke-linejoin="round" stroke-width="2.5"/>
      <rect id="Rectangle_1753" data-name="Rectangle 1753" width="7.279" height="26.651" transform="translate(35.995 21.184)" fill="none" stroke="#555" stroke-linecap="round" stroke-linejoin="round" stroke-width="2.5"/>
      <path id="Path_44046" data-name="Path 44046" d="M297.141,175.95l3.64-21.184,3.64,21.184" transform="translate(-261.146 -154.766)" fill="none" stroke="#555" stroke-linecap="round" stroke-linejoin="round" stroke-width="2.5"/>
      <line id="Line_148" data-name="Line 148" x2="21.397" transform="translate(28.936 74.741)" fill="none" stroke="#555" stroke-linecap="round" stroke-linejoin="round" stroke-width="2.5"/>
      <line id="Line_149" data-name="Line 149" y1="0.256" x2="14.222" transform="translate(32.523 47.963)" fill="none" stroke="#555" stroke-linecap="round" stroke-linejoin="round" stroke-width="2.5"/>
      <line id="Line_150" data-name="Line 150" x2="11.66" transform="translate(33.804 21.184)" fill="none" stroke="#555" stroke-linecap="round" stroke-linejoin="round" stroke-width="2.5"/>
      <path id="Path_44047" data-name="Path 44047" d="M311.737,252.723V223.766H319.6v21.461" transform="translate(-259.119 -145.181)" fill="none" stroke="#555" stroke-linecap="round" stroke-linejoin="round" stroke-width="2.5"/>
      <rect id="Rectangle_1754" data-name="Rectangle 1754" width="5.937" height="12.236" transform="translate(53.579 66.349)" fill="none" stroke="#555" stroke-linecap="round" stroke-linejoin="round" stroke-width="2.5"/>
      <path id="Path_44048" data-name="Path 44048" d="M312.584,213.5s-.564-3.78,2.969-3.908,2.968,3.908,2.968,3.908" transform="translate(-259.006 -147.15)" fill="none" stroke="#555" stroke-linecap="round" stroke-linejoin="round" stroke-width="2.5"/>
      <line id="Line_152" data-name="Line 152" x2="9.353" transform="translate(51.871 66.349)" fill="none" stroke="#555" stroke-linecap="round" stroke-linejoin="round" stroke-width="2.5"/>
      <ellipse id="Ellipse_416" data-name="Ellipse 416" cx="3.16" cy="3.16" rx="3.16" ry="3.16" transform="translate(86.145 45.101)" fill="none" stroke="#555" stroke-linecap="round" stroke-linejoin="round" stroke-width="2.5"/>
      <path id="Path_44049" data-name="Path 44049" d="M331.912,319V292.091a12.336,12.336,0,0,1,12.3-12.3h1.409" transform="translate(-256.316 -137.398)" fill="none" stroke="#555" stroke-linecap="round" stroke-linejoin="round" stroke-width="2.5"/>
      <rect id="Rectangle_1755" data-name="Rectangle 1755" width="5.638" height="10.891" transform="translate(56.718 128.043)" fill="none" stroke="#555" stroke-linecap="round" stroke-linejoin="round" stroke-width="2.5"/>
      <rect id="Rectangle_1756" data-name="Rectangle 1756" width="5.638" height="10.891" transform="translate(71.837 128.043)" fill="none" stroke="#555" stroke-linecap="round" stroke-linejoin="round" stroke-width="2.5"/>
      <path id="Path_44050" data-name="Path 44050" d="M344.293,278.138h-2.819V267.247h2.819" transform="translate(-254.988 -139.14)" fill="none" stroke="#555" stroke-linecap="round" stroke-linejoin="round" stroke-width="2.5"/>
      <rect id="Rectangle_1757" data-name="Rectangle 1757" width="5.638" height="10.891" transform="translate(18.75 129.068)" fill="none" stroke="#555" stroke-linecap="round" stroke-linejoin="round" stroke-width="2.5"/>
      <rect id="Rectangle_1758" data-name="Rectangle 1758" width="5.638" height="10.891" transform="translate(33.869 129.068)" fill="none" stroke="#555" stroke-linecap="round" stroke-linejoin="round" stroke-width="2.5"/>
      <rect id="Rectangle_1759" data-name="Rectangle 1759" width="5.638" height="10.891" transform="translate(18.75 144.828)" fill="none" stroke="#555" stroke-linecap="round" stroke-linejoin="round" stroke-width="2.5"/>
      <rect id="Rectangle_1760" data-name="Rectangle 1760" width="5.638" height="10.891" transform="translate(33.869 144.828)" fill="none" stroke="#555" stroke-linecap="round" stroke-linejoin="round" stroke-width="2.5"/>
      <path id="Path_44051" data-name="Path 44051" d="M355.612,321.155h65.175V264.266" transform="translate(-253.024 -139.554)" fill="none" stroke="#555" stroke-linecap="round" stroke-linejoin="round" stroke-width="2.5"/>
      <line id="Line_154" data-name="Line 154" y2="24.171" transform="translate(113.607 73.802)" fill="none" stroke="#555" stroke-linecap="round" stroke-linejoin="round" stroke-width="2.5"/>
      <line id="Line_155" data-name="Line 155" x1="13.71" transform="translate(164.474 96.011)" fill="none" stroke="#555" stroke-linecap="round" stroke-linejoin="round" stroke-width="2.5"/>
      <path id="Path_44053" data-name="Path 44053" d="M396.028,254.857V220.391h-15.76v46.63" transform="translate(-249.599 -145.649)" fill="none" stroke="#555" stroke-linecap="round" stroke-linejoin="round" stroke-width="2.5"/>
      <rect id="Rectangle_1763" data-name="Rectangle 1763" width="9.604" height="26.651" transform="translate(143.352 74.741) rotate(-180)" fill="none" stroke="#555" stroke-linecap="round" stroke-linejoin="round" stroke-width="2.5"/>
      <rect id="Rectangle_1764" data-name="Rectangle 1764" width="7.279" height="26.651" transform="translate(142.189 47.834) rotate(-180)" fill="none" stroke="#555" stroke-linecap="round" stroke-linejoin="round" stroke-width="2.5"/>
      <path id="Path_44054" data-name="Path 44054" d="M391.27,175.95l-3.64-21.184-3.64,21.184" transform="translate(-249.081 -154.766)" fill="none" stroke="#555" stroke-linecap="round" stroke-linejoin="round" stroke-width="2.5"/>
      <line id="Line_156" data-name="Line 156" x1="21.397" transform="translate(127.851 74.741)" fill="none" stroke="#555" stroke-linecap="round" stroke-linejoin="round" stroke-width="2.5"/>
      <line id="Line_157" data-name="Line 157" x1="14.222" y1="0.256" transform="translate(131.438 47.963)" fill="none" stroke="#555" stroke-linecap="round" stroke-linejoin="round" stroke-width="2.5"/>
      <line id="Line_158" data-name="Line 158" x1="11.66" transform="translate(132.72 21.184)" fill="none" stroke="#555" stroke-linecap="round" stroke-linejoin="round" stroke-width="2.5"/>
      <path id="Path_44055" data-name="Path 44055" d="M376.745,252.723V223.766h-7.859v21.461" transform="translate(-251.18 -145.181)" fill="none" stroke="#555" stroke-linecap="round" stroke-linejoin="round" stroke-width="2.5"/>
      <line id="Line_159" data-name="Line 159" x1="9.353" transform="translate(166.759 83.774)" fill="none" stroke="#555" stroke-linecap="round" stroke-linejoin="round" stroke-width="2.5"/>
      <rect id="Rectangle_1765" data-name="Rectangle 1765" width="5.937" height="12.236" transform="translate(124.605 78.585) rotate(-180)" fill="none" stroke="#555" stroke-linecap="round" stroke-linejoin="round" stroke-width="2.5"/>
      <path id="Path_44056" data-name="Path 44056" d="M375.671,213.5s.565-3.78-2.968-3.908-2.969,3.908-2.969,3.908" transform="translate(-251.067 -147.15)" fill="none" stroke="#555" stroke-linecap="round" stroke-linejoin="round" stroke-width="2.5"/>
      <line id="Line_160" data-name="Line 160" x1="9.353" transform="translate(116.96 66.349)" fill="none" stroke="#555" stroke-linecap="round" stroke-linejoin="round" stroke-width="2.5"/>
      <path id="Path_44057" data-name="Path 44057" d="M357.284,319V292.091a12.336,12.336,0,0,0-12.3-12.3h-1.41" transform="translate(-254.696 -137.398)" fill="none" stroke="#555" stroke-linecap="round" stroke-linejoin="round" stroke-width="2.5"/>
      <rect id="Rectangle_1766" data-name="Rectangle 1766" width="5.638" height="10.891" transform="translate(121.466 138.934) rotate(-180)" fill="none" stroke="#555" stroke-linecap="round" stroke-linejoin="round" stroke-width="2.5"/>
      <rect id="Rectangle_1767" data-name="Rectangle 1767" width="5.638" height="10.891" transform="translate(106.346 138.934) rotate(-180)" fill="none" stroke="#555" stroke-linecap="round" stroke-linejoin="round" stroke-width="2.5"/>
      <path id="Path_44058" data-name="Path 44058" d="M343.574,278.138h2.819V267.247h-2.819" transform="translate(-254.696 -139.14)" fill="none" stroke="#555" stroke-linecap="round" stroke-linejoin="round" stroke-width="2.5"/>
      <rect id="Rectangle_1768" data-name="Rectangle 1768" width="5.638" height="10.891" transform="translate(159.434 139.959) rotate(-180)" fill="none" stroke="#555" stroke-linecap="round" stroke-linejoin="round" stroke-width="2.5"/>
      <rect id="Rectangle_1769" data-name="Rectangle 1769" width="5.638" height="10.891" transform="translate(144.315 139.959) rotate(-180)" fill="none" stroke="#555" stroke-linecap="round" stroke-linejoin="round" stroke-width="2.5"/>
      <rect id="Rectangle_1770" data-name="Rectangle 1770" width="5.638" height="10.891" transform="translate(159.434 155.719) rotate(-180)" fill="none" stroke="#555" stroke-linecap="round" stroke-linejoin="round" stroke-width="2.5"/>
      <rect id="Rectangle_1771" data-name="Rectangle 1771" width="5.638" height="10.891" transform="translate(144.315 155.719) rotate(-180)" fill="none" stroke="#555" stroke-linecap="round" stroke-linejoin="round" stroke-width="2.5"/>
      <path id="Path_44074" data-name="Path 44074" d="M274.687,266.173c0-10.332,8.376-15.632,18.707-15.632s18.707,5.3,18.707,15.632" transform="translate(-264.266 -141.461)" fill="none" stroke="#555" stroke-linecap="round" stroke-linejoin="round" stroke-width="2.5"/>
      <path id="Path_44075" data-name="Path 44075" d="M307.537,268.048c0-22.786,18.567-31.007,41.47-31.007" transform="translate(-259.702 -143.336)" fill="none" stroke="#555" stroke-linecap="round" stroke-linejoin="round" stroke-width="2.5"/>
      <path id="Path_44076" data-name="Path 44076" d="M417.4,266.173c0-10.332-8.376-15.632-18.707-15.632s-18.707,5.3-18.707,15.632" transform="translate(-249.638 -141.461)" fill="none" stroke="#555" stroke-linecap="round" stroke-linejoin="round" stroke-width="2.5"/>
      <path id="Path_44077" data-name="Path 44077" d="M385.045,268.048c0-22.786-18.568-31.007-41.471-31.007" transform="translate(-254.696 -143.336)" fill="none" stroke="#555" stroke-linecap="round" stroke-linejoin="round" stroke-width="2.5"/>
      <path id="Path_44078" data-name="Path 44078" d="M371.267,221.473c0-10.332-8.376-15.632-18.707-15.632H340.944c-10.331,0-18.707,5.3-18.707,15.632" transform="translate(-257.66 -147.67)" fill="none" stroke="#555" stroke-linecap="round" stroke-linejoin="round" stroke-width="2.5"/>
      <line id="Line_168" data-name="Line 168" x2="78.884" transform="translate(10.421 124.712)" fill="none" stroke="#555" stroke-linecap="round" stroke-linejoin="round" stroke-width="2.5"/>
      <line id="Line_169" data-name="Line 169" x1="78.884" transform="translate(88.879 124.712)" fill="none" stroke="#555" stroke-linecap="round" stroke-linejoin="round" stroke-width="2.5"/>
      <path id="Path_44079" data-name="Path 44079" d="M374.717,220.366H319.537" transform="translate(-258.035 -145.653)" fill="none" stroke="#555" stroke-linecap="round" stroke-linejoin="round" stroke-width="2.5"/>
      <rect id="Rectangle_1761" data-name="Rectangle 1761" width="7.346" height="85.59" transform="translate(175.109 181.6) rotate(-180)" fill="none" stroke="#555" stroke-linecap="round" stroke-linejoin="round" stroke-width="2.5"/>
      <rect id="Rectangle_1762" data-name="Rectangle 1762" width="5.937" height="12.236" transform="translate(174.404 96.011) rotate(-180)" fill="none" stroke="#555" stroke-linecap="round" stroke-linejoin="round" stroke-width="2.5"/>
      <path id="Path_44052" data-name="Path 44052" d="M419.4,228.8s.565-3.78-2.968-3.908-2.969,3.908-2.969,3.908" transform="translate(-244.992 -145.024)" fill="none" stroke="#555" stroke-linecap="round" stroke-linejoin="round" stroke-width="2.5"/>
      <rect id="Rectangle_1750" data-name="Rectangle 1750" width="7.346" height="85.59" transform="translate(3.075 96.011)" fill="none" stroke="#555" stroke-linecap="round" stroke-linejoin="round" stroke-width="2.5"/>
      <line id="Line_147" data-name="Line 147" x2="13.71" transform="translate(0 96.011)" fill="none" stroke="#555" stroke-linecap="round" stroke-linejoin="round" stroke-width="2.5"/>
      <line id="Line_151" data-name="Line 151" x2="9.353" transform="translate(2.072 83.774)" fill="none" stroke="#555" stroke-linecap="round" stroke-linejoin="round" stroke-width="2.5"/>
      <rect id="Rectangle_1751" data-name="Rectangle 1751" width="5.937" height="12.236" transform="translate(3.78 83.774)" fill="none" stroke="#555" stroke-linecap="round" stroke-linejoin="round" stroke-width="2.5"/>
      <path id="Path_44044" data-name="Path 44044" d="M268.859,228.8s-.564-3.78,2.969-3.908S274.8,228.8,274.8,228.8" transform="translate(-265.08 -145.024)" fill="none" stroke="#555" stroke-linecap="round" stroke-linejoin="round" stroke-width="2.5"/>
    </g>
    <path id="Path_44119" data-name="Path 44119" d="M0,0H1583.764" transform="translate(0 313.866)" fill="none" stroke="#d9cca1" stroke-width="1"/>
  </g>
</svg>
