<svg id="Group_53851" data-name="Group 53851" xmlns="http://www.w3.org/2000/svg" width="47.648" height="54.717" viewBox="0 0 47.648 54.717">
  <path id="Path_47927" data-name="Path 47927" d="M81.132,639.206a27.541,27.541,0,0,1-6.761,10.3,35.537,35.537,0,0,1-13.214,7.656,4.131,4.131,0,0,1-1.284.221h-.048a4.159,4.159,0,0,1-.788-.076,4.315,4.315,0,0,1-.542-.144,35.549,35.549,0,0,1-13.229-7.653,27.491,27.491,0,0,1-6.76-10.3c-2.731-7.247-2.575-15.23-2.452-21.645v-.1c.025-.53.042-1.086.05-1.7a5.735,5.735,0,0,1,1.655-3.911,5.99,5.99,0,0,1,3.932-1.77c6.434-.351,11.411-2.4,15.663-6.457l.037-.033a3.645,3.645,0,0,1,4.866,0l.036.033c4.253,4.054,9.23,6.106,15.664,6.457a5.985,5.985,0,0,1,3.929,1.772,5.732,5.732,0,0,1,1.653,3.909c.008.619.025,1.174.05,1.7v.042C83.718,623.938,83.873,631.94,81.132,639.206Z" transform="translate(-36 -602.665)" fill="#0b258a"/>
  <ellipse id="Ellipse_667" data-name="Ellipse 667" cx="13.763" cy="13.763" rx="13.763" ry="13.763" transform="translate(10.114 13.33)" fill="#fff"/>
  <path id="Path_47929" data-name="Path 47929" d="M285.063,485.028V474.822c0-.8-.29-1.085-1.078-1.085h-2.363v1.085H282a.365.365,0,0,1,.249.12c.124.121.124.241.124.523v9.523h2.694Zm1.326,0h2.694v-7.755c0-.764-.289-1.085-1.119-1.085h-1.575Zm-5.14,0v-8.84h-1.575c-.788,0-1.077.321-1.077,1.085v7.755Zm10.529-5.183a8.042,8.042,0,1,1-8.041-8A7.772,7.772,0,0,1,291.778,479.844Zm1.907,0a9.97,9.97,0,1,0-9.948,9.845A9.668,9.668,0,0,0,293.685,479.844Z" transform="translate(-259.893 -452.489)" fill="#0b258a"/>
</svg>
