<svg xmlns="http://www.w3.org/2000/svg" width="17.35" height="17.35" viewBox="0 0 17.35 17.35">
  <path id="Path_47910" data-name="Path 47910" d="M211.016,116.673v7.341a.667.667,0,1,1-1.335,0v-2.669a2,2,0,0,0-2-2h-2v-8.008A1.335,1.335,0,0,0,204.343,110h-8.008A1.333,1.333,0,0,0,195,111.335v14.681a1.333,1.333,0,0,0,1.335,1.335h8.008a1.335,1.335,0,0,0,1.335-1.335v-5.338h2a.666.666,0,0,1,.668.667v2.669a2,2,0,0,0,4,0v-8.675A1.335,1.335,0,0,0,211.016,114v-2.016a.66.66,0,0,0-.937-.593.684.684,0,0,0-.223.162.705.705,0,0,0-.14.237.682.682,0,0,0-.035.275v3.269A1.334,1.334,0,1,0,211.016,114Zm-6.673.668a.669.669,0,0,1-.668.667H197a.666.666,0,0,1-.668-.667v-4a.666.666,0,0,1,.668-.668h6.673a.669.669,0,0,1,.668.668Z" transform="translate(-195 -110)" fill="#adadad"/>
</svg>
