<svg xmlns="http://www.w3.org/2000/svg" width="26.235" height="30.293" viewBox="0 0 26.235 30.293">
  <path id="Path_4" data-name="Path 4" d="M893.86,477.935h8.951c-.423,1.217-.814,2.355-1.213,3.49-2.208,6.294-4.4,12.594-6.64,18.878a24.747,24.747,0,0,1-1.6,3.575,8.14,8.14,0,0,1-6.374,4.195,42.657,42.657,0,0,1-8.339-.113l.022-7.511c.833.078,1.64.18,2.449.218a6,6,0,0,0,1.439-.1,1.586,1.586,0,0,0,1.416-1.988,15.44,15.44,0,0,0-.714-2.642c-2.149-5.837-4.514-12.173-6.682-18h9.22l4.1,14.248h.134Z" transform="translate(-876.576 -477.935)" fill="#ee2430"/>
</svg>
