<svg xmlns="http://www.w3.org/2000/svg" width="1320.13" height="1306.943" viewBox="0 0 1320.13 1306.943">
  <path id="Path_44125" data-name="Path 44125" d="M1445.941,477.935l294.875.015c-13.925,40.107-26.828,77.577-39.942,114.973-72.733,207.353-144.992,414.87-218.744,621.863a815.436,815.436,0,0,1-52.7,117.781c-45.041,82.165-118.052,125.023-209.98,138.189,0,0-141.527,13.65-274.7-3.731l.722-247.418c27.439,2.553,54.007,5.915,80.668,7.177a197.714,197.714,0,0,0,47.41-3.234c35.4-7.022,52.868-30.175,46.638-65.494a508.658,508.658,0,0,0-23.51-87.048c-70.8-192.281-148.685-401-220.106-593.058l303.726-.015,134.912,469.358h4.427Z" transform="translate(-935.788 1000.257) rotate(-49)" fill="#2c2c2c" opacity="0.023"/>
</svg>
