<svg xmlns="http://www.w3.org/2000/svg" width="17.35" height="20.127" viewBox="0 0 17.35 20.127">
  <path id="Path_47907" data-name="Path 47907" d="M23.625,108a2.013,2.013,0,1,1-1.423.59A2.011,2.011,0,0,1,23.625,108Zm.392,12.871a34.507,34.507,0,0,1,4.277.252c.06-2.736-.181-5.152-.644-6.079a2.784,2.784,0,0,0-.5-.7L19.026,121.3A31.345,31.345,0,0,1,24.017,120.871ZM19.056,123.1a26.545,26.545,0,0,0,.815,5.032h2.083a18.372,18.372,0,0,1-.664-3.019,14.229,14.229,0,0,1,4.67,0,18.372,18.372,0,0,1-.664,3.019h2.083a26.818,26.818,0,0,0,.835-5.243,35.18,35.18,0,0,0-4.2-.252A26.757,26.757,0,0,0,19.056,123.1Zm4.569-10.064s-3.019,0-4.026,2.013a11.752,11.752,0,0,0-.634,3.986l6.592-5.656A6.665,6.665,0,0,0,23.625,113.032Zm6.612-1.338-1.147-1.338-3.532,3.03a4.069,4.069,0,0,1,1.59.955Zm2.113,10.225a21.87,21.87,0,0,0-4.056-.8c-.01.574-.04,1.167-.081,1.761a21.6,21.6,0,0,1,3.583.715ZM18.965,119.03,15,122.432l.9,1.49a18.512,18.512,0,0,1,3.16-.825A35.083,35.083,0,0,1,18.965,119.03Z" transform="translate(-15 -108)" fill="#adadad"/>
</svg>
